<svg width="350" height="350" viewBox="0 0 350 350" fill="none" xmlns="http://www.w3.org/2000/svg">
<g filter="url(#filter0_d_26_7)">
<rect x="4" width="342" height="342" rx="30" fill="white"/>
<path d="M61.192 87.024C48.52 87.024 39.24 78.32 39.24 63.344C39.24 49.008 47.752 39.536 61.448 39.536C73.928 39.536 80.712 45.744 82.696 57.328L69.704 57.776C68.808 52.592 65.8 49.584 61.448 49.584C55.176 49.584 52.104 55.28 52.104 63.344C52.104 71.664 55.496 76.976 61.32 76.976C66.248 76.976 68.936 73.84 69.704 68.272L82.76 68.72C80.776 80.624 73.608 87.024 61.192 87.024ZM98.854 86V50.608H85.606V40.56H124.71V50.608H111.462V86H98.854ZM128.356 86L144.164 63.216L128.484 40.56H142.948L151.588 53.872L159.844 40.56H174.436L158.82 63.088L174.564 86H160.1L151.46 72.432L142.948 86H128.356ZM193.782 86V68.976L178.166 40.56H191.734L200.118 56.944L208.374 40.56H221.942L206.39 68.976V86H193.782ZM225.544 86V76.528L245.448 50.608H226.696V40.56H261.384V50.032L240.84 75.952H262.344V86H225.544Z" fill="black"/>
<path d="M231.328 303V297.864H229.432V296.232H230.176C231.328 296.232 231.808 295.8 231.808 294.48H233.68V303H231.328ZM239.19 303.192C236.826 303.192 235.386 301.512 235.386 298.752C235.386 295.992 236.838 294.288 239.19 294.288C241.53 294.288 242.982 295.992 242.982 298.752C242.982 301.5 241.542 303.192 239.19 303.192ZM239.19 301.308C240.09 301.308 240.57 300.492 240.57 298.752C240.57 297.012 240.09 296.172 239.19 296.172C238.278 296.172 237.798 297.012 237.798 298.752C237.798 300.492 238.278 301.308 239.19 301.308ZM247.745 303.192C245.381 303.192 243.941 301.512 243.941 298.752C243.941 295.992 245.393 294.288 247.745 294.288C250.085 294.288 251.537 295.992 251.537 298.752C251.537 301.5 250.097 303.192 247.745 303.192ZM247.745 301.308C248.645 301.308 249.125 300.492 249.125 298.752C249.125 297.012 248.645 296.172 247.745 296.172C246.833 296.172 246.353 297.012 246.353 298.752C246.353 300.492 246.833 301.308 247.745 301.308ZM254.344 303V297.864H252.448V296.232H253.192C254.344 296.232 254.824 295.8 254.824 294.48H256.696V303H254.344ZM262.206 303.192C259.842 303.192 258.402 301.512 258.402 298.752C258.402 295.992 259.854 294.288 262.206 294.288C264.546 294.288 265.998 295.992 265.998 298.752C265.998 301.5 264.558 303.192 262.206 303.192ZM262.206 301.308C263.106 301.308 263.586 300.492 263.586 298.752C263.586 297.012 263.106 296.172 262.206 296.172C261.294 296.172 260.814 297.012 260.814 298.752C260.814 300.492 261.294 301.308 262.206 301.308ZM268.805 303V297.864H266.909V296.232H267.653C268.805 296.232 269.285 295.8 269.285 294.48H271.157V303H268.805ZM274.711 303V297.864H272.815V296.232H273.559C274.711 296.232 275.191 295.8 275.191 294.48H277.063V303H274.711ZM282.573 303.192C280.209 303.192 278.769 301.512 278.769 298.752C278.769 295.992 280.221 294.288 282.573 294.288C284.913 294.288 286.365 295.992 286.365 298.752C286.365 301.5 284.925 303.192 282.573 303.192ZM282.573 301.308C283.473 301.308 283.953 300.492 283.953 298.752C283.953 297.012 283.473 296.172 282.573 296.172C281.661 296.172 281.181 297.012 281.181 298.752C281.181 300.492 281.661 301.308 282.573 301.308ZM291.128 303.192C288.764 303.192 287.324 301.512 287.324 298.752C287.324 295.992 288.776 294.288 291.128 294.288C293.468 294.288 294.92 295.992 294.92 298.752C294.92 301.5 293.48 303.192 291.128 303.192ZM291.128 301.308C292.028 301.308 292.508 300.492 292.508 298.752C292.508 297.012 292.028 296.172 291.128 296.172C290.216 296.172 289.736 297.012 289.736 298.752C289.736 300.492 290.216 301.308 291.128 301.308ZM299.682 303.192C297.318 303.192 295.878 301.512 295.878 298.752C295.878 295.992 297.33 294.288 299.682 294.288C302.022 294.288 303.474 295.992 303.474 298.752C303.474 301.5 302.034 303.192 299.682 303.192ZM299.682 301.308C300.582 301.308 301.062 300.492 301.062 298.752C301.062 297.012 300.582 296.172 299.682 296.172C298.77 296.172 298.29 297.012 298.29 298.752C298.29 300.492 298.77 301.308 299.682 301.308ZM306.281 303V297.864H304.385V296.232H305.129C306.281 296.232 306.761 295.8 306.761 294.48H308.633V303H306.281ZM314.143 303.192C311.779 303.192 310.339 301.512 310.339 298.752C310.339 295.992 311.791 294.288 314.143 294.288C316.483 294.288 317.935 295.992 317.935 298.752C317.935 301.5 316.495 303.192 314.143 303.192ZM314.143 301.308C315.043 301.308 315.523 300.492 315.523 298.752C315.523 297.012 315.043 296.172 314.143 296.172C313.231 296.172 312.751 297.012 312.751 298.752C312.751 300.492 313.231 301.308 314.143 301.308Z" fill="black"/>
</g>
<defs>
<filter id="filter0_d_26_7" x="0" y="0" width="350" height="350" filterUnits="userSpaceOnUse" color-interpolation-filters="sRGB">
<feFlood flood-opacity="0" result="BackgroundImageFix"/>
<feColorMatrix in="SourceAlpha" type="matrix" values="0 0 0 0 0 0 0 0 0 0 0 0 0 0 0 0 0 0 127 0" result="hardAlpha"/>
<feOffset dy="4"/>
<feGaussianBlur stdDeviation="2"/>
<feComposite in2="hardAlpha" operator="out"/>
<feColorMatrix type="matrix" values="0 0 0 0 0 0 0 0 0 0 0 0 0 0 0 0 0 0 0.25 0"/>
<feBlend mode="normal" in2="BackgroundImageFix" result="effect1_dropShadow_26_7"/>
<feBlend mode="normal" in="SourceGraphic" in2="effect1_dropShadow_26_7" result="shape"/>
</filter>
</defs>
</svg>
